<?xml version="1.0" encoding="utf-8"?><svg xml:space="preserve" viewBox="0 0 100 100" y="0" x="0" xmlns="http://www.w3.org/2000/svg" id="圖層_1" version="1.1" width="200px" height="200px" xmlns:xlink="http://www.w3.org/1999/xlink" style="width:100%;height:100%;background-size:initial;background-repeat-y:initial;background-repeat-x:initial;background-position-y:initial;background-position-x:initial;background-origin:initial;background-color:initial;background-clip:initial;background-attachment:initial;animation-play-state:paused" ><g class="ldl-scale" style="transform-origin:50% 50%;transform:rotate(0deg) scale(0.8, 0.8);animation-play-state:paused" ><path fill="#333" d="M50 5C25.187 5 5 25.187 5 50s20.187 45 45 45 45-20.187 45-45S74.813 5 50 5zm0 80c-19.299 0-35-15.701-35-35s15.701-35 35-35 35 15.701 35 35-15.701 35-35 35z" style="fill:rgb(51, 51, 51);animation-play-state:paused" ></path>
<path fill="#849b87" d="M46.539 70.869l29.208-29.208a5 5 0 1 0-7.071-7.071L43.003 60.262l-12.68-12.68a5.001 5.001 0 0 0-7.071 7.071l16.215 16.215c.977.976 2.256 1.464 3.536 1.464s2.559-.487 3.536-1.463z" style="fill:rgb(132, 155, 135);animation-play-state:paused" ></path>
<metadata xmlns:d="https://loading.io/stock/" style="animation-play-state:paused" ><d:name style="animation-play-state:paused" >check</d:name>


<d:tags style="animation-play-state:paused" >ok,select,choice,circle,option,enable,on,check,form</d:tags>


<d:license style="animation-play-state:paused" >by</d:license>


<d:slug style="animation-play-state:paused" >3gy023</d:slug></metadata></g><!-- generated by https://loading.io/ --></svg>