<?xml version="1.0" encoding="utf-8"?><svg xml:space="preserve" viewBox="0 0 100 100" y="0" x="0" xmlns="http://www.w3.org/2000/svg" id="圖層_1" version="1.1" width="200px" height="200px" xmlns:xlink="http://www.w3.org/1999/xlink" style="width:100%;height:100%;background-size:initial;background-repeat-y:initial;background-repeat-x:initial;background-position-y:initial;background-position-x:initial;background-origin:initial;background-color:initial;background-clip:initial;background-attachment:initial;animation-play-state:paused" ><g class="ldl-scale" style="transform-origin:50% 50%;transform:rotate(0deg) scale(0.8, 0.8);animation-play-state:paused" ><circle stroke="#333" stroke-width="8" fill="#fff" stroke-miterlimit="10" r="37" cy="50" cx="50" style="stroke:rgb(51, 51, 51);fill:rgba(255, 255, 255, 0);animation-play-state:paused" ></circle>
<path fill="#333" d="M45.39 70H34.841c-.666 0-1.205-.54-1.205-1.205v-37.59c0-.666.54-1.205 1.205-1.205H45.39c.666 0 1.205.54 1.205 1.205v37.59c0 .665-.54 1.205-1.205 1.205z" style="fill:rgb(51, 51, 51);animation-play-state:paused" ></path>
<path fill="#333" d="M65.159 70H54.61c-.666 0-1.205-.54-1.205-1.205v-37.59c0-.666.54-1.205 1.205-1.205h10.549c.666 0 1.205.54 1.205 1.205v37.59c0 .665-.54 1.205-1.205 1.205z" style="fill:rgb(51, 51, 51);animation-play-state:paused" ></path>
<metadata xmlns:d="https://loading.io/stock/" style="animation-play-state:paused" ><d:name style="animation-play-state:paused" >pause</d:name>


<d:tags style="animation-play-state:paused" >pause,stop,halt,stay,trap,player</d:tags>


<d:license style="animation-play-state:paused" >by</d:license>


<d:slug style="animation-play-state:paused" >44mnya</d:slug></metadata></g><!-- generated by https://loading.io/ --></svg>
